MostlyFourBySeven.sfdir
StartChar: exclam
Encoding: 33 33 98
Width: 200
VWidth: 0
Flags: W
HStem: 0 100<0 100> 680 20G<0 100> 680 20G<0 100>
VStem: 0 100<0 100 200 700>
LayerCount: 2
Fore
SplineSet
0 700 m 25xd0
 100 700 l 25
 100 200 l 25
 0 200 l 25
 0 700 l 25xd0
0 100 m 25
 100 100 l 25
 100 0 l 25
 0 0 l 25
 0 100 l 25
EndSplineSet
EndChar
StartChar: quotedbl
Encoding: 34 34 95
Width: 400
VWidth: 0
Flags: W
HStem: 400 300<0 100 200 300>
VStem: 0 100<400 700> 200 100<400 700>
LayerCount: 2
Fore
SplineSet
200 700 m 25
 300 700 l 25
 300 400 l 25
 200 400 l 25
 200 700 l 25
0 700 m 25
 100 700 l 25
 100 400 l 25
 0 400 l 25
 0 700 l 25
EndSplineSet
EndChar
StartChar: numbersign
Encoding: 35 35 96
Width: 600
VWidth: 0
Flags: W
HStem: 0 21G<100 200 300 400> 0 21G<100 200 300 400> 200 100<0 100 200 300 400 500> 400 100<0 100 200 300 400 500> 680 20G<100 200 300 400> 680 20G<100 200 300 400>
VStem: 100 100<0 200 300 400 500 700> 300 100<0 200 300 400 500 700>
LayerCount: 2
Fore
SplineSet
300 400 m 25x33
 200 400 l 25
 200 300 l 25
 300 300 l 25
 300 400 l 25x33
100 0 m 25xbb
 100 200 l 25
 0 200 l 25
 0 300 l 25
 100 300 l 25
 100 400 l 25
 0 400 l 25
 0 500 l 25
 100 500 l 25
 100 700 l 25
 200 700 l 25
 200 500 l 25
 300 500 l 25
 300 700 l 25
 400 700 l 25
 400 500 l 25
 500 500 l 25
 500 400 l 25
 400 400 l 25
 400 300 l 25
 500 300 l 25
 500 200 l 25
 400 200 l 25
 400 0 l 25
 300 0 l 25
 300 200 l 25
 200 200 l 25
 200 0 l 25
 100 0 l 25xbb
EndSplineSet
EndChar
StartChar: dollar
Encoding: 36 36 97
Width: 600
VWidth: 0
Flags: W
HStem: 0 100<100 200 300 400> 100 100<0 100> 300 100<100 200 300 400> 500 100<400 500> 600 100<100 200 300 400>
VStem: 0 100<100 200 400 600> 100 300<0 100 300 400 600 700> 200 100<-100 0 100 300 400 600 700 800> 400 100<100 300 500 600>
AnchorPoint: "above" 250 800 basechar 0
LayerCount: 2
Fore
SplineSet
0 100 m 25x64
 0 200 l 25
 100 200 l 25x64
 100 100 l 25xa4
 0 100 l 25x64
300 100 m 1xa9
 400 100 l 9
 400 0 l 17xaa
 300 0 l 1
 300 -100 l 1
 200 -100 l 1
 200 0 l 1xa9
 100 0 l 9xaa
 100 100 l 17
 200 100 l 1
 200 300 l 1xad
 100 300 l 9xaa
 100 400 l 17
 200 400 l 1
 200 600 l 1
 100 600 l 9xad
 100 700 l 17xaa
 200 700 l 1
 200 800 l 1
 300 800 l 1
 300 700 l 1xa9
 400 700 l 9xaa
 400 600 l 17x32
 300 600 l 1
 300 400 l 1x29
 400 400 l 9
 400 300 l 17x2a
 300 300 l 1
 300 100 l 1xa9
400 300 m 25
 500 300 l 25
 500 100 l 25x6080
 400 100 l 25
 400 300 l 25
0 600 m 25x2c
 100 600 l 25
 100 400 l 25
 0 400 l 25
 0 600 l 25x2c
400 600 m 25x32
 500 600 l 25
 500 500 l 25
 400 500 l 25x3080
 400 600 l 25x32
EndSplineSet
EndChar
StartChar: percent
Encoding: 37 37 99
Width: 600
VWidth: 0
Flags: W
HStem: 0 100<300 400> 100 100<0 100 200 300 400 500> 200 100<100 200 300 400> 300 100<200 300> 400 100<100 200 300 400> 500 100<0 100 200 300 400 500> 600 100<100 200>
VStem: 0 100<100 200 500 600> 100 100<200 300 400 500 600 700> 200 100<100 200 300 400 500 600> 300 100<0 100 200 300 400 500> 400 100<100 200 500 600>
LayerCount: 2
Fore
SplineSet
100 700 m 25x0280
 200 700 l 25x0280
 200 600 l 25x0480
 100 600 l 25x05
 100 700 l 25x0280
100 500 m 29x09
 200 500 l 29x0880
 200 400 l 29x1080
 100 400 l 29x0880
 100 500 l 29x09
200 600 m 25x0480
 300 600 l 25x0440
 300 500 l 25x0840
 200 500 l 25x0880
 200 600 l 25x0480
0 600 m 25x05
 100 600 l 25x05
 100 500 l 25x09
 0 500 l 25
 0 600 l 25x05
400 600 m 25x0410
 500 600 l 25
 500 500 l 25x0410
 400 500 l 25x0820
 400 600 l 25x0410
300 500 m 29x0840
 400 500 l 29
 400 400 l 29x0820
 300 400 l 29x1040
 300 500 l 29x0840
200 400 m 29x1080
 300 400 l 29x1040
 300 300 l 29x2040
 200 300 l 29x2080
 200 400 l 29x1080
100 300 m 29x2080
 200 300 l 29x2080
 200 200 l 29x4080
 100 200 l 29x41
 100 300 l 29x2080
300 300 m 29x2040
 400 300 l 29x2020
 400 200 l 29x4020
 300 200 l 29x4040
 300 300 l 29x2040
300 100 m 25x8040
 400 100 l 25
 400 0 l 25
 300 0 l 25x8020
 300 100 l 25x8040
400 200 m 25x4020
 500 200 l 25
 500 100 l 25x4010
 400 100 l 25x8020
 400 200 l 25x4020
200 200 m 25x4080
 300 200 l 25x4040
 300 100 l 25x8040
 200 100 l 25x4040
 200 200 l 25x4080
0 200 m 25x41
 100 200 l 25
 100 100 l 25
 0 100 l 25
 0 200 l 25x41
EndSplineSet
EndChar
StartChar: quotesingle
Encoding: 39 39 89
Width: 200
VWidth: 0
Flags: W
HStem: 400 300<0 100>
VStem: 0 100<400 700>
LayerCount: 2
Fore
SplineSet
0 700 m 25
 100 700 l 25
 100 400 l 25
 0 400 l 25
 0 700 l 25
EndSplineSet
EndChar
StartChar: parenleft
Encoding: 40 40 93
Width: 300
VWidth: 0
Flags: W
HStem: 0 100<100 200> 680 20G<0 100> 680 20G<0 100> 700 100<100 200>
VStem: 0 100<100 700> 100 100<0 100 700 800>
LayerCount: 2
Fore
SplineSet
0 700 m 25xc8
 100 700 l 25
 100 100 l 25
 0 100 l 25
 0 700 l 25xc8
100 100 m 25
 200 100 l 25
 200 0 l 25
 100 0 l 25x84
 100 100 l 25
100 800 m 25x94
 200 800 l 25
 200 700 l 25x94
 100 700 l 25xc8
 100 800 l 25x94
EndSplineSet
EndChar
StartChar: parenright
Encoding: 41 41 94
Width: 300
VWidth: 0
Flags: W
LayerCount: 2
Fore
SplineSet
200 700 m 25
 100 700 l 25
 100 100 l 25
 200 100 l 25
 200 700 l 25
100 100 m 25
 0 100 l 25
 0 0 l 25
 100 0 l 25
 100 100 l 25
100 800 m 25
 0 800 l 25
 0 700 l 25
 100 700 l 25
 100 800 l 25
EndSplineSet
EndChar
StartChar: asterisk
Encoding: 42 42 107
Width: 600
VWidth: 0
Flags: W
HStem: 100 100<100 200 300 400> 300 100<0 200 300 500> 500 100<100 200 300 400>
VStem: 100 100<100 200 500 600> 200 100<200 300 400 500> 300 100<100 200 500 600>
CounterMasks: 1 e0
LayerCount: 2
Fore
SplineSet
300 200 m 29xe8
 400 200 l 29
 400 100 l 29
 300 100 l 29xe4
 300 200 l 29xe8
100 200 m 29xf0
 200 200 l 29
 200 100 l 29
 100 100 l 29
 100 200 l 29xf0
300 600 m 29xe4
 400 600 l 29
 400 500 l 29xe4
 300 500 l 29xe8
 300 600 l 29xe4
100 600 m 29xf0
 200 600 l 29
 200 500 l 29
 100 500 l 29
 100 600 l 29xf0
0 300 m 13
 0 400 l 21
 200 400 l 5xe8
 200 500 l 5xf0
 300 500 l 5
 300 400 l 5
 500 400 l 13
 500 300 l 21
 300 300 l 5
 300 200 l 5xe8
 200 200 l 5xf0
 200 300 l 5xe8
 0 300 l 13
EndSplineSet
EndChar
StartChar: plus
Encoding: 43 43 100
Width: 600
VWidth: 0
Flags: W
HStem: 300 100<0 200 300 500>
VStem: 200 100<100 300 400 600>
LayerCount: 2
Fore
SplineSet
200 100 m 25
 200 300 l 25
 0 300 l 25
 0 400 l 25
 200 400 l 25
 200 600 l 25
 300 600 l 25
 300 400 l 25
 500 400 l 25
 500 300 l 25
 300 300 l 25
 300 100 l 25
 200 100 l 25
EndSplineSet
EndChar
StartChar: comma
Encoding: 44 44 82
Width: 300
VWidth: 0
Flags: W
HStem: -100 100<0 100> 0 21G<100 200> 0 21G<100 200> 100 100<0 100>
VStem: 0 100<-100 0> 100 100<0 100>
LayerCount: 2
Fore
SplineSet
0 200 m 25x98
 200 200 l 25
 200 0 l 25x54
 100 0 l 25x98
 100 100 l 25x94
 0 100 l 25
 0 200 l 25x98
0 0 m 25x98
 100 0 l 25
 100 -100 l 25
 0 -100 l 25
 0 0 l 25x98
EndSplineSet
EndChar
StartChar: hyphen
Encoding: 45 45 83
Width: 400
VWidth: 0
Flags: W
HStem: 300 100<0 300>
VStem: 0 300<300 400>
AnchorPoint: "above" 150 800 basechar 0
LayerCount: 2
Fore
SplineSet
0 400 m 25
 300 400 l 25
 300 300 l 25
 0 300 l 25
 0 400 l 25
EndSplineSet
EndChar
StartChar: period
Encoding: 46 46 81
Width: 200
VWidth: 0
Flags: W
HStem: 0 100<0 100>
VStem: 0 100<0 100>
LayerCount: 2
Fore
SplineSet
0 100 m 25
 100 100 l 25
 100 0 l 25
 0 0 l 25
 0 100 l 25
EndSplineSet
EndChar
StartChar: slash
Encoding: 47 47 84
Width: 500
VWidth: 0
Flags: W
AnchorPoint: "above" 200 800 basechar 0
LayerCount: 2
Fore
SplineSet
100 200 m 25
 0 200 l 25
 0 0 l 25
 100 0 l 25
 100 200 l 25
400 700 m 25
 300 700 l 25
 300 600 l 25
 400 600 l 25
 400 700 l 25
100 200 m 25
 200 200 l 25
 200 400 l 25
 100 400 l 25
 100 200 l 25
300 600 m 25
 200 600 l 25
 200 400 l 25
 300 400 l 25
 300 600 l 25
EndSplineSet
EndChar
StartChar: zero
Encoding: 48 48 0
Width: 400
VWidth: 0
Flags: W
HStem: 0 100<100 200> 600 100<100 200>
VStem: 0 100<100 600> 100 100<0 100 600 700> 200 100<100 600>
AnchorPoint: "above" 150 800 basechar 0
LayerCount: 2
Fore
SplineSet
100 600 m 25xe0
 100 700 l 25
 200 700 l 25
 200 600 l 25xd0
 100 600 l 25xe0
0 100 m 25xe0
 0 600 l 25
 100 600 l 25
 100 100 l 25
 0 100 l 25xe0
200 600 m 25xd0
 300 600 l 25
 300 100 l 25xc8
 200 100 l 25
 200 600 l 25xd0
100 0 m 25xd0
 100 100 l 25xe0
 200 100 l 25
 200 0 l 25
 100 0 l 25xd0
EndSplineSet
EndChar
StartChar: one
Encoding: 49 49 26
Width: 300
VWidth: 0
Flags: W
HStem: 0 21G<100 200> 0 21G<100 200> 500 100<0 100> 680 20G<100 200> 680 20G<100 200>
VStem: 100 100<0 500 600 700>
AnchorPoint: "above" 150 800 basechar 0
LayerCount: 2
Fore
SplineSet
0 600 m 25xb4
 100 600 l 25
 100 700 l 25
 200 700 l 25
 200 0 l 25
 100 0 l 25
 100 500 l 25
 0 500 l 25
 0 600 l 25xb4
EndSplineSet
EndChar
StartChar: two
Encoding: 50 50 58
Width: 500
VWidth: 0
Flags: W
HStem: 0 100<100 400> 200 100<100 200> 300 100<200 300> 500 100<0 100> 600 100<100 300>
VStem: 0 100<100 200 500 600> 100 100<200 300> 200 100<300 400> 300 100<400 600>
AnchorPoint: "above" 200 800 basechar 0
LayerCount: 2
Fore
SplineSet
0 200 m 25xc480
 100 200 l 17
 100 100 l 1
 400 100 l 1
 400 0 l 9
 0 0 l 25
 0 200 l 25xc480
100 300 m 25xc2
 200 300 l 25
 200 200 l 25xc2
 100 200 l 25xc4
 100 300 l 25xc2
200 400 m 25xa1
 300 400 l 25
 300 300 l 25xa1
 200 300 l 25xc2
 200 400 l 25xa1
0 600 m 25x94
 100 600 l 25
 100 500 l 25
 0 500 l 25
 0 600 l 25x94
300 600 m 25xa880
 400 600 l 25
 400 400 l 25xa880
 300 400 l 25xa9
 300 600 l 25xa880
100 700 m 25x8a
 300 700 l 25
 300 600 l 25x8a80
 100 600 l 25x9480
 100 700 l 25x8a
EndSplineSet
EndChar
StartChar: three
Encoding: 51 51 59
Width: 500
VWidth: 0
Flags: W
HStem: 0 100<100 300> 100 100<0 100> 300 100<100 300> 500 100<0 100> 600 100<100 300>
VStem: 0 100<100 200 500 600> 100 200<0 100 300 400 600 700> 300 100<100 300 400 600>
AnchorPoint: "above" 200 800 basechar 0
LayerCount: 2
Fore
SplineSet
0 100 m 25x64
 0 200 l 25
 100 200 l 25x64
 100 100 l 25xa4
 0 100 l 25x64
300 100 m 25xa2
 300 0 l 25
 100 0 l 25xa2
 100 100 l 25xa4
 300 100 l 25xa2
300 300 m 25
 400 300 l 25
 400 100 l 25x61
 300 100 l 25
 300 300 l 25
100 400 m 25x22
 300 400 l 25
 300 300 l 25
 100 300 l 25
 100 400 l 25x22
300 600 m 25x2a
 400 600 l 25
 400 400 l 25x29
 300 400 l 25
 300 600 l 25x2a
0 600 m 25x34
 100 600 l 25
 100 500 l 25
 0 500 l 25
 0 600 l 25x34
100 700 m 25x2a
 300 700 l 25
 300 600 l 25x2a
 100 600 l 25x34
 100 700 l 25x2a
EndSplineSet
EndChar
StartChar: four
Encoding: 52 52 60
Width: 500
VWidth: 0
Flags: W
HStem: 0 21G<200 300> 0 21G<200 300> 300 100<100 200 300 400> 500 100<100 200> 680 20G<200 300> 680 20G<200 300>
VStem: 0 100<400 500> 200 100<0 300 400 500 600 700>
AnchorPoint: "above" 200 800 basechar 0
LayerCount: 2
Fore
SplineSet
200 700 m 25xbb
 300 700 l 25
 300 400 l 25
 400 400 l 25
 400 300 l 25
 300 300 l 25
 300 0 l 25
 200 0 l 25
 200 300 l 25
 0 300 l 25
 0 500 l 25
 100 500 l 25
 100 400 l 25
 200 400 l 25
 200 500 l 25
 100 500 l 25
 100 600 l 25
 200 600 l 25
 200 700 l 25xbb
EndSplineSet
EndChar
StartChar: five
Encoding: 53 53 61
Width: 500
VWidth: 0
Flags: W
HStem: 0 100<100 300> 100 100<0 100> 400 100<100 300> 600 100<100 400>
VStem: 0 100<100 200 500 600> 300 100<100 400>
AnchorPoint: "above" 200 800 basechar 0
LayerCount: 2
Fore
SplineSet
0 100 m 25x7c
 0 200 l 25
 100 200 l 25x7c
 100 100 l 25xbc
 0 100 l 25x7c
300 100 m 25xbc
 300 0 l 25
 100 0 l 25
 100 100 l 25
 300 100 l 25xbc
300 400 m 25
 400 400 l 25
 400 100 l 25x7c
 300 100 l 25
 300 400 l 25
300 500 m 25
 300 400 l 25
 100 400 l 25
 0 400 l 25
 0 700 l 25
 400 700 l 25
 400 600 l 25
 100 600 l 1
 100 500 l 1
 300 500 l 25
EndSplineSet
EndChar
StartChar: six
Encoding: 54 54 62
Width: 500
VWidth: 0
Flags: W
HStem: 0 100<100 300> 300 100<100 300> 500 100<300 400> 600 100<100 300>
VStem: 0 100<100 300 400 600> 100 200<0 100 600 700> 300 100<100 300 500 600>
AnchorPoint: "above" 200 800 basechar 0
LayerCount: 2
Fore
SplineSet
300 100 m 25xc4
 300 0 l 25
 100 0 l 25xc4
 100 100 l 25xc8
 300 100 l 25xc4
300 300 m 25xc2
 400 300 l 25
 400 100 l 25xc2
 300 100 l 25xc4
 300 300 l 25xc2
100 400 m 9xda
 300 400 l 25
 300 300 l 25
 100 300 l 17
 100 100 l 9
 0 100 l 25
 0 600 l 25
 100 600 l 17
 100 400 l 9xda
300 600 m 25xe4
 400 600 l 25
 400 500 l 25
 300 500 l 25xe2
 300 600 l 25xe4
100 700 m 25xd4
 300 700 l 25xd4
 300 600 l 25xe4
 100 600 l 25xd8
 100 700 l 25xd4
EndSplineSet
EndChar
StartChar: seven
Encoding: 55 55 64
Width: 500
VWidth: 0
Flags: W
HStem: 0 21G<100 200> 0 21G<100 200> 600 100<0 300>
VStem: 100 100<0 300> 200 100<300 500> 300 100<500 600>
AnchorPoint: "above" 200 800 basechar 0
LayerCount: 2
Fore
SplineSet
100 300 m 25xb0
 200 300 l 25
 200 0 l 25
 100 0 l 25
 100 300 l 25xb0
200 500 m 25x28
 300 500 l 25
 300 300 l 25x28
 200 300 l 25x30
 200 500 l 25x28
0 700 m 25
 400 700 l 25
 400 500 l 25x24
 300 500 l 25x28
 300 600 l 25x24
 0 600 l 25
 0 700 l 25
EndSplineSet
EndChar
StartChar: eight
Encoding: 56 56 65
Width: 500
VWidth: 0
Flags: W
HStem: 0 100<100 300> 100 200<0 100 300 400> 300 100<100 300> 400 200<0 100 300 400> 600 100<100 300>
VStem: 0 100<100 300 400 600> 100 200<0 100 300 400 600 700> 300 100<100 300 400 600>
AnchorPoint: "above" 200 800 basechar 0
LayerCount: 2
Fore
SplineSet
0 100 m 25x44
 0 300 l 25
 100 300 l 25x44
 100 100 l 25x84
 0 100 l 25x44
300 100 m 25x82
 300 0 l 25
 100 0 l 25x82
 100 100 l 25x84
 300 100 l 25x82
300 300 m 25x42
 400 300 l 25
 400 100 l 25x41
 300 100 l 25x82
 300 300 l 25x42
100 400 m 25x24
 300 400 l 25x22
 300 300 l 25x42
 100 300 l 25x44
 100 400 l 25x24
300 600 m 25x12
 400 600 l 25
 400 400 l 25x11
 300 400 l 25x22
 300 600 l 25x12
0 600 m 25x14
 100 600 l 25x14
 100 400 l 25x24
 0 400 l 25
 0 600 l 25x14
100 700 m 25x0a
 300 700 l 25x0a
 300 600 l 25x12
 100 600 l 25x14
 100 700 l 25x0a
EndSplineSet
EndChar
StartChar: nine
Encoding: 57 57 63
Width: 500
VWidth: 0
Flags: W
HStem: 0 100<100 300> 100 100<0 100> 300 100<100 300> 600 100<100 300>
VStem: 0 100<100 200 400 600> 100 200<0 100 600 700> 300 100<100 300 400 600>
AnchorPoint: "above" 200 800 basechar 0
LayerCount: 2
Fore
SplineSet
100 600 m 25x38
 100 700 l 25
 300 700 l 25
 300 600 l 25x34
 100 600 l 25x38
100 400 m 25x38
 0 400 l 25
 0 600 l 25
 100 600 l 25
 100 400 l 25x38
300 300 m 9xb2
 100 300 l 25xb4
 100 400 l 25
 300 400 l 17xba
 300 600 l 9xb4
 400 600 l 25
 400 100 l 25x72
 300 100 l 17xb4
 300 300 l 9xb2
100 100 m 25xb8
 0 100 l 25
 0 200 l 25
 100 200 l 25x78
 100 100 l 25xb8
300 0 m 25xb4
 100 0 l 25xb4
 100 100 l 25xb8
 300 100 l 25
 300 0 l 25xb4
EndSplineSet
EndChar
StartChar: colon
Encoding: 58 58 86
Width: 200
VWidth: 0
Flags: W
HStem: 0 100<0 100> 400 100<0 100>
VStem: 0 100<0 100 400 500>
LayerCount: 2
Fore
SplineSet
0 500 m 29
 100 500 l 29
 100 400 l 29
 0 400 l 29
 0 500 l 29
0 100 m 29
 100 100 l 29
 100 0 l 29
 0 0 l 29
 0 100 l 29
EndSplineSet
EndChar
StartChar: semicolon
Encoding: 59 59 87
Width: 300
VWidth: 0
Flags: W
HStem: -100 100<0 100> 0 21<100 200 100 200> 100 100<0 100> 400 100<0 200>
VStem: 0 100<-100 0> 0 200<400 500> 100 100<0 100>
LayerCount: 2
Fore
SplineSet
0 500 m 25x34
 200 500 l 25
 200 400 l 25
 0 400 l 25
 0 500 l 25x34
EndSplineSet
Refer: 82 44 N 1 0 0 1 0 0 2
EndChar
StartChar: less
Encoding: 60 60 103
Width: 400
VWidth: 0
Flags: W
HStem: 100 100<200 300> 200 100<100 200> 300 100<0 100> 400 100<100 200> 500 100<200 300>
VStem: 0 100<300 400> 100 100<200 300 400 500> 200 100<100 200 500 600>
LayerCount: 2
Fore
SplineSet
200 100 m 29x81
 200 200 l 29x82
 300 200 l 29
 300 100 l 29
 200 100 l 29x81
100 200 m 29x42
 100 300 l 29x44
 200 300 l 29x42
 200 200 l 29x82
 100 200 l 29x42
200 500 m 29x12
 200 600 l 29
 300 600 l 29
 300 500 l 29x09
 200 500 l 29x12
100 400 m 29x24
 100 500 l 29
 200 500 l 29
 200 400 l 29x12
 100 400 l 29x24
0 300 m 29x24
 0 400 l 29
 100 400 l 29x24
 100 300 l 29x44
 0 300 l 29x24
EndSplineSet
EndChar
StartChar: equal
Encoding: 61 61 88
Width: 500
VWidth: 0
Flags: W
HStem: 200 100<0 400> 400 100<0 400>
LayerCount: 2
Fore
SplineSet
0 500 m 25
 400 500 l 25
 400 400 l 25
 0 400 l 25
 0 500 l 25
0 300 m 25
 400 300 l 25
 400 200 l 25
 0 200 l 25
 0 300 l 25
EndSplineSet
EndChar
StartChar: greater
Encoding: 62 62 104
Width: 400
VWidth: 0
Flags: W
HStem: 100 100<0 100> 200 100<100 200> 300 100<200 300> 400 100<100 200> 500 100<0 100>
VStem: 0 100<100 200 500 600> 100 100<200 300 400 500> 200 100<300 400>
LayerCount: 2
Fore
SplineSet
100 600 m 25x0c
 100 500 l 25x14
 0 500 l 25
 0 600 l 25
 100 600 l 25x0c
200 500 m 25x12
 200 400 l 25x22
 100 400 l 25x12
 100 500 l 25x14
 200 500 l 25x12
100 200 m 25x84
 100 100 l 25
 0 100 l 25
 0 200 l 25
 100 200 l 25x84
200 300 m 25x42
 200 200 l 25x42
 100 200 l 25x84
 100 300 l 25
 200 300 l 25x42
300 400 m 25x21
 300 300 l 25x21
 200 300 l 25x42
 200 400 l 25x22
 300 400 l 25x21
EndSplineSet
EndChar
StartChar: question
Encoding: 63 63 90
Width: 600
VWidth: 0
Flags: W
HStem: 0 100<200 300> 200 100<200 300> 300 100<300 400> 500 100<0 100> 600 100<100 400>
VStem: 0 100<500 600> 200 100<0 100 200 300> 300 100<300 400> 400 100<400 600>
AnchorPoint: "above" 200 800 basechar 0
LayerCount: 2
Fore
SplineSet
300 400 m 25xa5
 400 400 l 25
 400 300 l 25xa5
 300 300 l 25xc6
 300 400 l 25xa5
200 100 m 25x86
 300 100 l 25
 300 0 l 25
 200 0 l 25
 200 100 l 25x86
200 300 m 25xc6
 300 300 l 25
 300 200 l 25
 200 200 l 25
 200 300 l 25xc6
0 600 m 25x94
 100 600 l 25
 100 500 l 25
 0 500 l 25
 0 600 l 25x94
400 600 m 25xac80
 500 600 l 25
 500 400 l 25xac80
 400 400 l 25xad
 400 600 l 25xac80
100 700 m 25
 400 700 l 25
 400 600 l 25x8c80
 100 600 l 25x9480
 100 700 l 25
EndSplineSet
EndChar
StartChar: at
Encoding: 64 64 105
Width: 600
VWidth: 0
Flags: W
HStem: 0 100<100 500> 200 100<300 400> 300 100<200 300> 600 100<100 400>
VStem: 0 100<100 600> 200 100<300 400> 300 200<200 300 400 500> 400 100<300 400 500 600>
LayerCount: 2
Fore
SplineSet
200 400 m 25xbc
 300 400 l 25xbc
 300 300 l 25xdc
 200 300 l 25
 200 400 l 25xbc
400 600 m 25xb9
 500 600 l 25xb9
 500 200 l 25
 300 200 l 25xda
 300 300 l 25
 400 300 l 25xdd
 400 400 l 25
 300 400 l 25xbd
 300 500 l 25xba
 400 500 l 25
 400 600 l 25xb9
100 700 m 25
 400 700 l 25
 400 600 l 25
 100 600 l 25
 100 700 l 25
0 600 m 25
 100 600 l 25
 100 100 l 25
 0 100 l 25
 0 600 l 25
100 0 m 25
 100 100 l 25
 500 100 l 25
 500 0 l 25
 100 0 l 25
EndSplineSet
EndChar
StartChar: A
Encoding: 65 65 1
Width: 500
VWidth: 0
Flags: W
HStem: 0 21G<0 100 300 400> 0 21G<0 100 300 400> 300 100<100 300> 600 100<100 300>
VStem: 0 100<0 300 400 600> 300 100<0 300 400 600>
AnchorPoint: "above" 200 800 basechar 0
LayerCount: 2
Fore
SplineSet
100 700 m 25x3c
 300 700 l 25
 300 600 l 25
 100 600 l 25
 100 700 l 25x3c
0 0 m 9xbc
 0 600 l 25
 100 600 l 25
 100 400 l 25
 300 400 l 25
 300 600 l 25
 400 600 l 25
 400 0 l 17
 300 0 l 1
 300 300 l 1
 100 300 l 1
 100 0 l 1
 0 0 l 9xbc
EndSplineSet
EndChar
StartChar: B
Encoding: 66 66 2
Width: 500
VWidth: 0
Flags: W
HStem: 0 100<100 300> 300 100<100 300> 600 100<100 300>
VStem: 0 300<0 100 300 400 600 700> 0 100<100 300 400 600> 300 100<100 300 400 600>
CounterMasks: 1 e0
AnchorPoint: "above" 200 800 basechar 0
LayerCount: 2
Fore
SplineSet
300 300 m 25xf0
 400 300 l 25
 400 100 l 25xe4
 300 100 l 25
 300 300 l 25xf0
300 600 m 25xf0
 400 600 l 25
 400 400 l 25xe4
 300 400 l 25
 300 600 l 25xf0
0 0 m 25xf0
 0 700 l 25
 300 700 l 25
 300 600 l 25xf0
 100 600 l 25
 100 400 l 25xe8
 300 400 l 25
 300 300 l 25xf0
 100 300 l 25
 100 100 l 25xe8
 300 100 l 25
 300 0 l 17
 0 0 l 25xf0
EndSplineSet
EndChar
StartChar: C
Encoding: 67 67 3
Width: 500
VWidth: 0
Flags: W
HStem: 0 100<100 300> 100 100<300 400> 500 100<300 400> 600 100<100 300>
VStem: 0 100<100 600> 100 200<0 100 600 700> 300 100<100 200 500 600>
AnchorPoint: "above" 200 800 basechar 0
LayerCount: 2
Fore
SplineSet
100 600 m 25x18
 100 700 l 25
 300 700 l 25x14
 300 600 l 25x24
 100 600 l 25x18
0 100 m 25x48
 0 600 l 25
 100 600 l 25
 100 100 l 25x98
 0 100 l 25x48
300 200 m 25x42
 400 200 l 25
 400 100 l 25x42
 300 100 l 25x84
 300 200 l 25x42
300 600 m 25x24
 400 600 l 25
 400 500 l 25
 300 500 l 25x22
 300 600 l 25x24
100 0 m 25x84
 100 100 l 25x88
 300 100 l 25
 300 0 l 17
 100 0 l 25x84
EndSplineSet
EndChar
StartChar: D
Encoding: 68 68 4
Width: 500
VWidth: 0
Flags: W
HStem: 0 100<100 300> 600 100<100 300>
VStem: 0 300<0 100 600 700> 0 100<100 600> 300 100<100 600>
AnchorPoint: "above" 200 800 basechar 0
LayerCount: 2
Fore
SplineSet
300 600 m 25xe0
 400 600 l 25
 400 100 l 25xc8
 300 100 l 25
 300 600 l 25xe0
100 100 m 25xd0
 300 100 l 25
 300 0 l 17
 0 0 l 25
 0 700 l 25
 300 700 l 25
 300 600 l 25xe0
 100 600 l 25
 100 100 l 25xd0
EndSplineSet
EndChar
StartChar: E
Encoding: 69 69 6
Width: 500
VWidth: 0
Flags: W
HStem: 0 100<100 400> 300 100<100 300> 600 100<100 400>
VStem: 0 100<100 300 400 600>
CounterMasks: 1 e0
AnchorPoint: "above" 200 800 basechar 0
LayerCount: 2
Fore
SplineSet
0 0 m 25
 0 700 l 25
 400 700 l 25
 400 600 l 25
 100 600 l 25
 100 400 l 25
 300 400 l 25
 300 300 l 25
 100 300 l 25
 100 100 l 25
 400 100 l 25
 400 0 l 17
 0 0 l 25
EndSplineSet
EndChar
StartChar: F
Encoding: 70 70 7
Width: 500
VWidth: 0
Flags: W
HStem: 0 21G<0 100> 0 21G<0 100> 300 100<100 300> 600 100<100 400>
VStem: 0 100<0 300 400 600>
AnchorPoint: "above" 200 800 basechar 0
LayerCount: 2
Fore
SplineSet
0 0 m 25xb8
 0 700 l 25
 400 700 l 25
 400 600 l 25
 100 600 l 25
 100 400 l 25
 300 400 l 25
 300 300 l 25
 100 300 l 25
 100 0 l 25
 0 0 l 25xb8
EndSplineSet
EndChar
StartChar: G
Encoding: 71 71 8
Width: 500
VWidth: 0
Flags: W
HStem: 0 100<100 300> 300 100<200 300> 500 100<300 400> 600 100<100 300>
VStem: 0 100<100 600> 100 200<0 100 600 700> 300 100<100 300 500 600>
AnchorPoint: "above" 200 800 basechar 0
LayerCount: 2
Fore
SplineSet
100 600 m 25xd8
 100 700 l 25
 300 700 l 25xd4
 300 600 l 25xe4
 100 600 l 25xd8
0 100 m 25xd8
 0 600 l 25
 100 600 l 25
 100 100 l 25
 0 100 l 25xd8
200 400 m 9
 400 400 l 25
 400 100 l 25xc2
 300 100 l 17xc4
 300 300 l 1xc2
 200 300 l 1
 200 400 l 9
300 600 m 25xe4
 400 600 l 25
 400 500 l 25
 300 500 l 25xe2
 300 600 l 25xe4
100 0 m 25xc4
 100 100 l 25xc8
 300 100 l 25
 300 0 l 17
 100 0 l 25xc4
EndSplineSet
EndChar
StartChar: H
Encoding: 72 72 9
Width: 500
VWidth: 0
Flags: W
HStem: 0 21G<0 100 300 400> 0 21G<0 100 300 400> 300 100<100 300> 680 20G<0 100 300 400> 680 20G<0 100 300 400>
VStem: 0 100<0 300 400 700> 300 100<0 300 400 700>
AnchorPoint: "above" 200 800 basechar 0
LayerCount: 2
Fore
SplineSet
0 0 m 25xb6
 0 700 l 25
 100 700 l 25
 100 400 l 25
 300 400 l 25
 300 700 l 25
 400 700 l 25
 400 0 l 25
 300 0 l 25
 300 300 l 25
 100 300 l 25
 100 0 l 25
 0 0 l 25xb6
EndSplineSet
EndChar
StartChar: I
Encoding: 73 73 10
Width: 200
VWidth: 0
Flags: W
HStem: 0 21G<0 100> 0 21G<0 100> 680 20G<0 100> 680 20G<0 100>
VStem: 0 100<0 700>
AnchorPoint: "above" 50 800 basechar 0
LayerCount: 2
Fore
SplineSet
0 0 m 25xa8
 0 700 l 25
 100 700 l 25
 100 0 l 25
 0 0 l 25xa8
EndSplineSet
EndChar
StartChar: J
Encoding: 74 74 12
Width: 500
VWidth: 0
Flags: W
HStem: 0 100<100 300> 100 100<0 100> 600 100<0 300>
VStem: 0 100<100 200> 300 100<100 600>
AnchorPoint: "above" 200 800 basechar 0
LayerCount: 2
Fore
SplineSet
0 200 m 25x78
 100 200 l 25x78
 100 100 l 25xb8
 0 100 l 25
 0 200 l 25x78
100 0 m 25xb8
 100 100 l 25
 300 100 l 25
 300 0 l 25
 100 0 l 25xb8
0 600 m 25
 0 700 l 25
 400 700 l 25
 400 100 l 25x78
 300 100 l 25
 300 600 l 25
 0 600 l 25
EndSplineSet
EndChar
StartChar: K
Encoding: 75 75 13
Width: 500
VWidth: 0
Flags: W
HStem: 0 21G<0 100 300 400> 0 21G<0 100 300 400> 200 100<200 300> 400 100<200 300> 680 20G<0 100 300 400> 680 20G<0 100 300 400>
VStem: 0 100<0 300 400 700> 200 100<200 300 400 500> 300 100<0 200 500 700>
AnchorPoint: "above" 200 800 basechar 0
LayerCount: 2
Fore
SplineSet
300 200 m 25xb3
 400 200 l 25
 400 0 l 25
 300 0 l 25xb280
 300 200 l 25xb3
200 300 m 25x33
 300 300 l 25
 300 200 l 25
 200 200 l 25
 200 300 l 25x33
300 500 m 25
 300 700 l 25
 400 700 l 25
 400 500 l 25x3a80
 300 500 l 25
200 400 m 25x33
 200 500 l 25
 300 500 l 25
 300 400 l 25
 200 400 l 25x33
0 0 m 25xbb
 0 700 l 25
 100 700 l 25
 100 400 l 25
 200 400 l 25
 200 300 l 25
 100 300 l 25
 100 0 l 25
 0 0 l 25xbb
EndSplineSet
EndChar
StartChar: L
Encoding: 76 76 14
Width: 500
VWidth: 0
Flags: W
HStem: 0 100<100 400> 680 20G<0 100> 680 20G<0 100>
VStem: 0 100<100 700>
AnchorPoint: "above" 200 800 basechar 0
LayerCount: 2
Fore
SplineSet
0 700 m 25xd0
 100 700 l 25
 100 100 l 25
 400 100 l 25
 400 0 l 25
 0 0 l 25
 0 700 l 25xd0
EndSplineSet
EndChar
StartChar: M
Encoding: 77 77 15
Width: 600
VWidth: 0
Flags: W
HStem: 0 21G<0 100 400 500> 0 21G<0 100 400 500> 400 100<200 300> 500 100<100 200 300 400> 680 20G<0 100 400 500> 680 20G<0 100 400 500>
VStem: 0 100<0 500 600 700> 200 100<400 500> 400 100<0 500 600 700>
CounterMasks: 1 0380
AnchorPoint: "above" 250 800 basechar 0
LayerCount: 2
Fore
SplineSet
300 500 m 25x2380
 300 600 l 25
 400 600 l 25
 400 700 l 25
 500 700 l 25
 500 0 l 25
 400 0 l 25
 400 500 l 25x9b80
 300 500 l 25x2380
200 500 m 25x2380
 300 500 l 25
 300 400 l 25
 200 400 l 25
 200 500 l 25x2380
0 0 m 25x9380
 0 700 l 25
 100 700 l 25
 100 600 l 25
 200 600 l 25x9b80
 200 500 l 25x2380
 100 500 l 25
 100 0 l 25
 0 0 l 25x9380
EndSplineSet
EndChar
StartChar: N
Encoding: 78 78 16
Width: 500
VWidth: 0
Flags: W
HStem: 0 21G<0 100 300 400> 0 21G<0 100 300 400> 680 20G<0 100 300 400> 680 20G<0 100 300 400>
VStem: 0 200<400 600> 0 100<0 400 600 700> 200 200<200 400> 300 100<0 200 400 700>
AnchorPoint: "above" 200 800 basechar 0
LayerCount: 2
Fore
SplineSet
200 400 m 25xa8
 300 400 l 25
 300 700 l 25
 400 700 l 25
 400 0 l 25
 300 0 l 25
 300 200 l 25xa9
 200 200 l 25xa2
 200 400 l 25xa8
0 700 m 25xa4
 100 700 l 25
 100 600 l 25xa4
 200 600 l 25
 200 400 l 25xa8
 100 400 l 25
 100 0 l 25
 0 0 l 25
 0 700 l 25xa4
EndSplineSet
EndChar
StartChar: O
Encoding: 79 79 17
Width: 500
VWidth: 0
Flags: W
HStem: 0 100<100 300> 600 100<100 300>
VStem: 0 100<100 600> 100 200<0 100 600 700> 300 100<100 600>
AnchorPoint: "above" 200 800 basechar 0
LayerCount: 2
Fore
SplineSet
100 600 m 25xe0
 100 700 l 25
 300 700 l 25
 300 600 l 25xd0
 100 600 l 25xe0
0 100 m 25xe0
 0 600 l 25
 100 600 l 25
 100 100 l 25
 0 100 l 25xe0
300 600 m 25xd0
 400 600 l 25
 400 100 l 25xc8
 300 100 l 25
 300 600 l 25xd0
100 0 m 25xd0
 100 100 l 25xe0
 300 100 l 25
 300 0 l 25
 100 0 l 25xd0
EndSplineSet
EndChar
StartChar: P
Encoding: 80 80 18
Width: 500
VWidth: 0
Flags: W
HStem: 0 21G<0 100> 0 21G<0 100> 300 100<100 300> 600 100<100 300>
VStem: 0 300<300 400 600 700> 0 100<0 300 400 600> 300 100<400 600>
AnchorPoint: "above" 200 800 basechar 0
LayerCount: 2
Fore
SplineSet
300 600 m 25x38
 400 600 l 25
 400 400 l 25x32
 300 400 l 25
 300 600 l 25x38
0 0 m 25xb4
 0 700 l 25
 300 700 l 25
 300 600 l 25xb8
 100 600 l 25
 100 400 l 25xb4
 300 400 l 25
 300 300 l 25xb8
 100 300 l 25
 100 0 l 25
 0 0 l 25xb4
EndSplineSet
EndChar
StartChar: Q
Encoding: 81 81 20
Width: 500
VWidth: 0
Flags: W
HStem: 0 100<100 200> 600 100<100 300>
VStem: 0 100<100 600> 300 100<200 600>
AnchorPoint: "above" 200 800 basechar 0
LayerCount: 2
Fore
SplineSet
100 600 m 25
 100 700 l 25
 300 700 l 25
 300 600 l 25
 100 600 l 25
0 100 m 25
 0 600 l 25
 100 600 l 25
 100 100 l 25
 0 100 l 25
300 600 m 25
 400 600 l 25
 400 0 l 25
 100 0 l 25
 100 100 l 25
 200 100 l 25
 200 200 l 25
 300 200 l 25
 300 600 l 25
EndSplineSet
EndChar
StartChar: R
Encoding: 82 82 19
Width: 500
VWidth: 0
Flags: W
HStem: 0 21G<0 100 300 400> 0 21G<0 100 300 400> 300 100<100 300> 600 100<100 300>
VStem: 0 300<300 400 600 700> 0 100<0 300 400 600> 300 100<0 300 400 600>
AnchorPoint: "above" 200 800 basechar 0
LayerCount: 2
Fore
SplineSet
300 300 m 25xb8
 400 300 l 25
 400 0 l 25
 300 0 l 25xb2
 300 300 l 25xb8
300 600 m 25x38
 400 600 l 25
 400 400 l 25x32
 300 400 l 25
 300 600 l 25x38
0 0 m 25xb4
 0 700 l 25
 300 700 l 25
 300 600 l 25xb8
 100 600 l 25
 100 400 l 25xb4
 300 400 l 25
 300 300 l 25xb8
 100 300 l 25
 100 0 l 25
 0 0 l 25xb4
EndSplineSet
EndChar
StartChar: S
Encoding: 83 83 21
Width: 500
VWidth: 0
Flags: W
HStem: 0 100<100 300> 100 100<0 100> 300 100<100 300> 500 100<300 400> 600 100<100 300>
VStem: 0 100<100 200 400 600> 100 200<0 100 300 400 600 700> 300 100<100 300 500 600>
AnchorPoint: "above" 200 800 basechar 0
LayerCount: 2
Fore
SplineSet
0 100 m 25x64
 0 200 l 25
 100 200 l 25x64
 100 100 l 25xa4
 0 100 l 25x64
300 100 m 25xa2
 300 0 l 25
 100 0 l 25xa2
 100 100 l 25xa4
 300 100 l 25xa2
300 300 m 25
 400 300 l 25
 400 100 l 25x61
 300 100 l 25
 300 300 l 25
100 400 m 25x24
 300 400 l 25
 300 300 l 25
 100 300 l 25x22
 100 400 l 25x24
0 600 m 25x2c
 100 600 l 25
 100 400 l 25
 0 400 l 25
 0 600 l 25x2c
300 600 m 25x32
 400 600 l 25
 400 500 l 25
 300 500 l 25x31
 300 600 l 25x32
100 700 m 25x2a
 300 700 l 25x2a
 300 600 l 25x32
 100 600 l 25x2c
 100 700 l 25x2a
EndSplineSet
EndChar
StartChar: T
Encoding: 84 84 22
Width: 400
VWidth: 0
Flags: W
HStem: 0 21G<100 200> 0 21G<100 200> 600 100<0 100 200 300>
VStem: 100 100<0 600>
AnchorPoint: "above" 150 800 basechar 0
LayerCount: 2
Fore
SplineSet
0 700 m 25xb0
 300 700 l 25
 300 600 l 25
 200 600 l 25
 200 0 l 25
 100 0 l 25
 100 600 l 25
 0 600 l 25
 0 700 l 25xb0
EndSplineSet
EndChar
StartChar: U
Encoding: 85 85 25
Width: 500
VWidth: 0
Flags: W
HStem: 0 100<100 300> 680 20G<0 100 300 400> 680 20G<0 100 300 400>
VStem: 0 100<100 700> 300 100<100 700>
AnchorPoint: "above" 200 800 basechar 0
LayerCount: 2
Fore
SplineSet
0 100 m 25xd8
 0 700 l 25
 100 700 l 25
 100 100 l 25
 0 100 l 25xd8
300 700 m 25
 400 700 l 25
 400 100 l 25
 300 100 l 25
 300 700 l 25
100 0 m 25
 100 100 l 25
 300 100 l 25
 300 0 l 25
 100 0 l 25
EndSplineSet
EndChar
StartChar: V
Encoding: 86 86 27
Width: 600
VWidth: 0
Flags: W
HStem: 0 100<200 300> 100 200<100 200 300 400> 680 20G<0 100 400 500> 680 20G<0 100 400 500>
VStem: 0 100<300 700> 100 100<100 300> 200 100<0 100> 300 100<100 300> 400 100<300 700>
AnchorPoint: "above" 250 800 basechar 0
LayerCount: 2
Fore
SplineSet
400 700 m 25x6080
 500 700 l 25
 500 300 l 25x6080
 400 300 l 25x61
 400 700 l 25x6080
300 300 m 25x41
 400 300 l 25
 400 100 l 25x41
 300 100 l 25x82
 300 300 l 25x41
200 100 m 25x84
 300 100 l 25
 300 0 l 25
 200 0 l 25x82
 200 100 l 25x84
100 300 m 25x48
 200 300 l 25x44
 200 100 l 25x84
 100 100 l 25x44
 100 300 l 25x48
0 700 m 25x68
 100 700 l 25
 100 300 l 25
 0 300 l 25
 0 700 l 25x68
EndSplineSet
EndChar
StartChar: W
Encoding: 87 87 28
Width: 600
VWidth: 0
Flags: W
HStem: 0 100<100 200 300 400> 680 20G<0 100 400 500> 680 20G<0 100 400 500>
VStem: 0 100<100 700> 100 100<0 100> 200 100<100 300> 300 100<0 100> 400 100<100 700>
AnchorPoint: "above" 250 800 basechar 0
LayerCount: 2
Fore
SplineSet
300 0 m 25x82
 300 100 l 25x84
 400 100 l 25
 400 0 l 25
 300 0 l 25x82
100 0 m 25x88
 100 100 l 25x90
 200 100 l 25
 200 0 l 25
 100 0 l 25x88
400 700 m 25xc1
 500 700 l 25
 500 100 l 25xc1
 400 100 l 25xc2
 400 700 l 25xc1
200 300 m 25x84
 300 300 l 25
 300 100 l 25x84
 200 100 l 25x88
 200 300 l 25x84
0 700 m 25xd0
 100 700 l 25
 100 100 l 25
 0 100 l 25
 0 700 l 25xd0
EndSplineSet
EndChar
StartChar: X
Encoding: 88 88 29
Width: 500
VWidth: 0
Flags: W
HStem: 0 300<0 100 300 400> 300 100<100 300> 400 300<0 100 300 400>
VStem: 0 100<0 300 400 700> 300 100<0 300 400 700>
AnchorPoint: "above" 200 800 basechar 0
LayerCount: 2
Fore
SplineSet
100 400 m 25x58
 300 400 l 25x58
 300 300 l 25
 100 300 l 25x98
 100 400 l 25x58
300 300 m 25x98
 400 300 l 25
 400 0 l 25
 300 0 l 25
 300 300 l 25x98
0 300 m 25
 100 300 l 25
 100 0 l 25
 0 0 l 25
 0 300 l 25
300 700 m 25x38
 400 700 l 25
 400 400 l 25x38
 300 400 l 25x58
 300 700 l 25x38
0 700 m 25
 100 700 l 25x38
 100 400 l 25x58
 0 400 l 25
 0 700 l 25
EndSplineSet
EndChar
StartChar: Y
Encoding: 89 89 30
Width: 600
VWidth: 0
Flags: W
HStem: 0 21G<200 300> 0 21G<200 300> 300 100<100 200 300 400> 400 300<0 100 400 500>
VStem: 0 100<400 700> 100 100<300 400> 200 100<0 300> 300 100<300 400> 400 100<400 700>
AnchorPoint: "above" 250 800 basechar 0
LayerCount: 2
Fore
SplineSet
200 300 m 25xa4
 300 300 l 25
 300 0 l 25
 200 0 l 25xa2
 200 300 l 25xa4
300 400 m 25x21
 400 400 l 25
 400 300 l 25x21
 300 300 l 25x22
 300 400 l 25x21
100 400 m 25x28
 200 400 l 25
 200 300 l 25
 100 300 l 25x24
 100 400 l 25x28
400 400 m 25x21
 400 700 l 25
 500 700 l 25
 500 400 l 25x1080
 400 400 l 25x21
0 400 m 25x18
 0 700 l 25
 100 700 l 25x18
 100 400 l 25x28
 0 400 l 25x18
EndSplineSet
EndChar
StartChar: Z
Encoding: 90 90 31
Width: 500
VWidth: 0
Flags: W
HStem: 0 100<100 400> 200 100<100 200> 600 100<0 300>
VStem: 0 100<100 200> 100 100<200 300> 200 100<300 500> 300 100<500 600>
AnchorPoint: "above" 200 800 basechar 0
LayerCount: 2
Fore
SplineSet
200 500 m 25xe4
 300 500 l 25
 300 300 l 25xe4
 200 300 l 25xe8
 200 500 l 25xe4
100 300 m 25xe8
 200 300 l 25
 200 200 l 25xe8
 100 200 l 25xf0
 100 300 l 25xe8
0 200 m 25xf2
 100 200 l 25
 100 100 l 25
 400 100 l 25
 400 0 l 25
 0 0 l 25
 0 200 l 25xf2
0 700 m 25
 400 700 l 25
 400 500 l 25xf2
 300 500 l 25xe4
 300 600 l 25
 0 600 l 25
 0 700 l 25
EndSplineSet
EndChar
StartChar: bracketleft
Encoding: 91 91 108
Width: 300
VWidth: 0
Flags: W
HStem: 0 100<100 200> 700 100<100 200>
VStem: 0 200<0 100 700 800> 0 100<100 700>
LayerCount: 2
Fore
SplineSet
0 800 m 9xe0
 200 800 l 25
 200 700 l 25xe0
 100 700 l 17
 100 100 l 9xd0
 200 100 l 25
 200 0 l 25
 0 0 l 17
 0 800 l 9xe0
EndSplineSet
EndChar
StartChar: backslash
Encoding: 92 92 85
Width: 500
VWidth: 0
Flags: W
HStem: 0 21G<300 400> 0 21G<300 400> 600 100<0 100>
VStem: 0 100<600 700> 100 100<400 600> 200 100<200 400> 300 100<0 200>
AnchorPoint: "above" 200 800 basechar 0
LayerCount: 2
Fore
SplineSet
300 200 m 25xa4
 400 200 l 25
 400 0 l 25
 300 0 l 25xa2
 300 200 l 25xa4
0 700 m 25x30
 100 700 l 25
 100 600 l 25
 0 600 l 25
 0 700 l 25x30
300 200 m 25x24
 200 200 l 25x24
 200 400 l 25x28
 300 400 l 25
 300 200 l 25x24
100 600 m 25x30
 200 600 l 25
 200 400 l 25
 100 400 l 25x28
 100 600 l 25x30
EndSplineSet
EndChar
StartChar: bracketright
Encoding: 93 93 109
Width: 300
VWidth: 0
Flags: W
HStem: 0 100<0 100> 700 100<0 100>
VStem: 0 200<0 100 700 800> 100 100<100 700>
LayerCount: 2
Fore
SplineSet
200 0 m 9xe0
 0 0 l 25
 0 100 l 25xe0
 100 100 l 17
 100 700 l 9xd0
 0 700 l 25
 0 800 l 25
 200 800 l 17
 200 0 l 9xe0
EndSplineSet
EndChar
StartChar: asciicircum
Encoding: 94 94 110
Width: 400
VWidth: 0
Flags: W
HStem: 500 100<0 100 200 300> 600 100<100 200>
VStem: 0 100<500 600> 100 100<600 700> 200 100<500 600>
LayerCount: 2
Fore
SplineSet
100 700 m 25x50
 200 700 l 25x50
 200 600 l 25x90
 100 600 l 25xa0
 100 700 l 25x50
200 600 m 25x90
 300 600 l 25
 300 500 l 25
 200 500 l 25x88
 200 600 l 25x90
0 600 m 25xa0
 100 600 l 25
 100 500 l 25
 0 500 l 25
 0 600 l 25xa0
EndSplineSet
EndChar
StartChar: underscore
Encoding: 95 95 106
Width: 600
VWidth: 0
Flags: W
HStem: 0 100<0 500>
LayerCount: 2
Fore
SplineSet
0 0 m 25
 0 100 l 25
 500 100 l 25
 500 0 l 25
 0 0 l 25
EndSplineSet
EndChar
StartChar: grave
Encoding: 96 96 112
Width: 300
VWidth: 0
Flags: W
HStem: 500 100<100 200> 600 100<0 100>
VStem: 0 100<600 700> 100 100<500 600>
LayerCount: 2
Fore
SplineSet
100 600 m 25xa0
 200 600 l 25
 200 500 l 25
 100 500 l 25x90
 100 600 l 25xa0
0 700 m 25x60
 100 700 l 25x60
 100 600 l 25xa0
 0 600 l 25
 0 700 l 25x60
EndSplineSet
EndChar
StartChar: braceleft
Encoding: 123 123 113
Width: 400
VWidth: 0
Flags: W
HStem: 0 100<200 300> 300 100<0 100> 600 100<200 300>
VStem: 0 100<300 400> 100 100<100 300 400 600> 200 100<0 100 600 700>
CounterMasks: 1 e0
LayerCount: 2
Fore
SplineSet
0 400 m 25xf0
 100 400 l 25
 100 300 l 25
 0 300 l 25
 0 400 l 25xf0
100 300 m 1
 200 300 l 1
 200 100 l 9
 100 100 l 17xe8
 100 300 l 1
100 400 m 1xf0
 100 600 l 9
 200 600 l 17
 200 400 l 1xe8
 100 400 l 1xf0
200 100 m 25
 300 100 l 25
 300 0 l 25
 200 0 l 25xe4
 200 100 l 25
200 700 m 25
 300 700 l 25
 300 600 l 25xe4
 200 600 l 25xe8
 200 700 l 25
EndSplineSet
EndChar
StartChar: bar
Encoding: 124 124 91
Width: 200
VWidth: 0
Flags: W
HStem: 0 21G<0 100> 0 21G<0 100>
VStem: 0 100<0 800>
AnchorPoint: "above" 50 800 basechar 0
LayerCount: 2
Fore
SplineSet
0 0 m 25xa0
 0 800 l 25
 100 800 l 25
 100 0 l 25
 0 0 l 25xa0
EndSplineSet
EndChar
StartChar: braceright
Encoding: 125 125 114
Width: 400
VWidth: 0
Flags: W
HStem: 0 100<0 100> 300 100<200 300> 600 100<0 100>
VStem: 0 100<0 100 600 700> 100 100<100 300 400 600> 200 100<300 400>
CounterMasks: 1 e0
LayerCount: 2
Fore
SplineSet
300 400 m 25xe4
 300 300 l 25xe4
 200 300 l 25
 200 400 l 25xe8
 300 400 l 25xe4
200 300 m 1xe8
 200 100 l 9xe8
 100 100 l 17xf0
 100 300 l 1
 200 300 l 1xe8
200 400 m 1
 100 400 l 1xe8
 100 600 l 9xf0
 200 600 l 17
 200 400 l 1
100 100 m 25xf0
 100 0 l 25
 0 0 l 25
 0 100 l 25
 100 100 l 25xf0
100 700 m 25
 100 600 l 25
 0 600 l 25
 0 700 l 25
 100 700 l 25
EndSplineSet
EndChar
StartChar: asciitilde
Encoding: 126 126 92
Width: 600
VWidth: 0
Flags: W
HStem: 200 100<300 400> 300 100<0 100 200 300 400 500> 400 100<100 200>
VStem: 0 100<300 400> 100 100<400 500> 200 100<300 400> 300 100<200 300> 400 100<300 400>
LayerCount: 2
Fore
SplineSet
400 400 m 25x41
 500 400 l 25
 500 300 l 25x41
 400 300 l 25x82
 400 400 l 25x41
300 300 m 25x84
 400 300 l 25
 400 200 l 25
 300 200 l 25x82
 300 300 l 25x84
200 400 m 25x48
 300 400 l 25x44
 300 300 l 25x84
 200 300 l 25x44
 200 400 l 25x48
100 500 m 25x28
 200 500 l 25x28
 200 400 l 25x48
 100 400 l 25x50
 100 500 l 25x28
0 400 m 25x50
 100 400 l 25
 100 300 l 25
 0 300 l 25
 0 400 l 25x50
EndSplineSet
EndChar
StartChar: uni0308
Encoding: 776 776 66
Width: 0
VWidth: 0
Flags: W
HStem: 800 100<0 100 300 400>
VStem: 0 100<800 900> 300 100<800 900>
AnchorPoint: "above" 200 800 mark 0
LayerCount: 2
Fore
SplineSet
300 900 m 29
 400 900 l 29
 400 800 l 29
 300 800 l 29
 300 900 l 29
0 900 m 29
 100 900 l 29
 100 800 l 29
 0 800 l 29
 0 900 l 29
300 900 m 29
 400 900 l 29
 400 800 l 29
 300 800 l 29
 300 900 l 29
0 900 m 29
 100 900 l 29
 100 800 l 29
 0 800 l 29
 0 900 l 29
EndSplineSet
EndChar
StartChar: minus
Encoding: 8722 8722 102
Width: 600
VWidth: 0
Flags: W
HStem: 300 100<0 500>
LayerCount: 2
Fore
SplineSet
0 300 m 29
 0 400 l 29
 500 400 l 29
 500 300 l 29
 0 300 l 29
EndSplineSet
EndChar
StartChar: I.serifs
Encoding: 65536 -1 11
Width: 400
VWidth: 0
Flags: W
HStem: 0 100<0 100 200 300> 600 100<0 100 200 300>
VStem: 0 300<0 100 600 700>
LayerCount: 2
Fore
SplineSet
0 0 m 25
 0 100 l 25
 100 100 l 25
 100 600 l 25
 0 600 l 25
 0 700 l 25
 300 700 l 25
 300 600 l 25
 200 600 l 25
 200 100 l 25
 300 100 l 25
 300 0 l 25
 0 0 l 25
EndSplineSet
EndChar
StartChar: T.wide
Encoding: 65537 -1 24
Width: 600
VWidth: 0
Flags: W
HStem: 0 21G<200 300> 0 21G<200 300> 600 100<0 200 300 500>
VStem: 200 100<0 600>
LayerCount: 2
Fore
SplineSet
0 700 m 25xb0
 500 700 l 25
 500 600 l 25
 300 600 l 25
 300 0 l 25
 200 0 l 25
 200 600 l 25
 0 600 l 25
 0 700 l 25xb0
EndSplineSet
EndChar
StartChar: asciicircum.small
Encoding: 65542 -1 111
Width: 600
VWidth: 0
Flags: W
HStem: 400 100<0 100 400 500> 500 100<100 200 300 400> 600 100<200 300>
VStem: 0 100<400 500> 100 100<500 600> 200 100<600 700> 300 100<500 600> 400 100<400 500>
LayerCount: 2
Fore
SplineSet
400 500 m 25x82
 500 500 l 25
 500 400 l 25
 400 400 l 25x81
 400 500 l 25x82
0 500 m 25x90
 100 500 l 25
 100 400 l 25
 0 400 l 25
 0 500 l 25x90
200 700 m 25x24
 300 700 l 25x24
 300 600 l 25x44
 200 600 l 25x48
 200 700 l 25x24
300 600 m 25x44
 400 600 l 25x42
 400 500 l 25x82
 300 500 l 25x42
 300 600 l 25x44
100 600 m 25x48
 200 600 l 25
 200 500 l 25x48
 100 500 l 25x90
 100 600 l 25x48
EndSplineSet
EndChar
StartChar: one.bottombar
Encoding: 65538 -1 57
Width: 400
VWidth: 0
Flags: W
HStem: 0 100<0 100 200 300> 500 100<0 100> 680 20G<100 200> 680 20G<100 200>
VStem: 100 100<100 500 600 700>
LayerCount: 2
Fore
SplineSet
0 600 m 25xe8
 100 600 l 25
 100 700 l 25
 200 700 l 17
 200 100 l 1
 300 100 l 1
 300 0 l 9
 0 0 l 17
 0 100 l 1
 100 100 l 1
 100 500 l 9
 0 500 l 25
 0 600 l 25xe8
EndSplineSet
EndChar
StartChar: plus.small
Encoding: 65541 -1 101
Width: 400
VWidth: 0
Flags: W
HStem: 300 100<0 100 200 300>
VStem: 100 100<200 300 400 500>
LayerCount: 2
Fore
SplineSet
100 200 m 25
 100 300 l 25
 0 300 l 25
 0 400 l 25
 100 400 l 25
 100 500 l 25
 200 500 l 25
 200 400 l 25
 300 400 l 25
 300 300 l 25
 200 300 l 25
 200 200 l 25
 100 200 l 25
EndSplineSet
EndChar
StartChar: uni0308.five
Encoding: 65540 -1 69
Width: 0
VWidth: 0
Flags: W
HStem: 800 100<0 100 400 500>
VStem: 0 100<800 900> 400 100<800 900>
AnchorPoint: "above" 250 800 mark 0
LayerCount: 2
Fore
SplineSet
400 900 m 25
 500 900 l 25
 500 800 l 25
 400 800 l 25
 400 900 l 25
0 900 m 25
 100 900 l 25
 100 800 l 25
 0 800 l 25
 0 900 l 25
400 900 m 25
 500 900 l 25
 500 800 l 25
 400 800 l 25
 400 900 l 25
0 900 m 25
 100 900 l 25
 100 800 l 25
 0 800 l 25
 0 900 l 25
EndSplineSet
EndChar
StartChar: uni0308.three
Encoding: 65539 -1 68
Width: 0
VWidth: 0
Flags: W
HStem: 800 100<0 100 200 300>
VStem: 0 100<800 900> 200 100<800 900>
AnchorPoint: "above" 150 800 mark 0
LayerCount: 2
Fore
SplineSet
200 900 m 25
 300 900 l 25
 300 800 l 25
 200 800 l 25
 200 900 l 25
0 900 m 25
 100 900 l 25
 100 800 l 25
 0 800 l 25
 0 900 l 25
200 900 m 25
 300 900 l 25
 300 800 l 25
 200 800 l 25
 200 900 l 25
0 900 m 25
 100 900 l 25
 100 800 l 25
 0 800 l 25
 0 900 l 25
EndSplineSet
EndChar
